<?xml version="1.0" standalone="no"?><!-- Generator: Gravit.io --><svg xmlns="http://www.w3.org/2000/svg" xmlns:xlink="http://www.w3.org/1999/xlink" style="isolation:isolate" viewBox="0 0 100 125" width="100" height="125"><defs><clipPath id="_clipPath_XWr7afL0z2aiMIXUNI9c87JC7KSAg7wl"><rect width="100" height="125"/></clipPath></defs><g clip-path="url(#_clipPath_XWr7afL0z2aiMIXUNI9c87JC7KSAg7wl)"><g id="Group"><path d=" M 75.377 39.831 C 72 39.831 68.815 35.054 68.815 35.054 C 65.95 29.615 67.958 27.128 68.78 26.405 C 63.337 21.199 55.435 17.917 46.655 17.917 C 38.042 17.917 30.275 21.074 24.844 26.109 C 24.946 26.13 25.048 26.152 25.151 26.17 C 25.151 26.17 28.92 28.411 25.419 35.054 C 25.419 35.054 22.237 39.831 18.857 39.831 C 18.473 39.831 18.086 39.768 17.701 39.629 C 17.701 39.629 17.565 39.527 17.33 39.322 C 17.083 40.635 16.954 41.985 16.954 43.359 C 16.954 57.387 30.278 68.801 46.655 68.801 C 63.033 68.801 76.357 57.387 76.357 43.359 C 76.357 42.137 76.253 40.936 76.058 39.759 C 75.831 39.805 75.604 39.831 75.377 39.831 Z  M 31.305 58.015 C 31.21 57.987 31.119 57.963 31.031 57.919 L 30.982 57.903 L 30.969 57.881 C 30.434 57.584 30.057 57.038 30.057 56.383 C 30.057 55.424 30.833 54.652 31.786 54.652 C 32.253 54.652 32.671 54.84 32.982 55.138 C 33.013 55.146 33.037 55.15 33.069 55.159 L 40.153 61.07 L 31.305 58.015 Z  M 61.945 57.881 L 61.932 57.902 L 61.882 57.918 C 61.794 57.961 61.705 57.986 61.608 58.014 L 52.758 61.07 L 59.843 55.159 C 59.877 55.15 59.9 55.146 59.931 55.138 C 60.242 54.84 60.66 54.652 61.127 54.652 C 62.082 54.652 62.856 55.424 62.856 56.383 C 62.855 57.038 62.48 57.584 61.945 57.881 Z " fill="none" vector-effect="non-scaling-stroke" stroke-width="1" stroke="rgb(255,255,255)" stroke-linejoin="miter" stroke-linecap="butt" stroke-miterlimit="4"/><path d=" M 87.128 74.758 C 87.59 72.438 87.801 70.233 87.798 68.161 C 87.757 55.793 80.576 48.341 77.356 45.608 C 77.206 47.133 76.92 48.623 76.484 50.063 C 79.552 53.192 83.951 59.23 83.943 68.161 C 83.943 69.892 83.77 71.746 83.396 73.717 L 77.904 69.134 L 78.949 89.245 C 88.077 83.791 94.316 73.663 94.316 73.663 L 87.128 74.758 Z " fill="none" vector-effect="non-scaling-stroke" stroke-width="1" stroke="rgb(255,255,255)" stroke-linejoin="miter" stroke-linecap="butt" stroke-miterlimit="4"/><path d=" M 30.116 93.294 C 30.35 91.417 30.674 89.532 31.086 87.654 C 29.342 87.301 27.869 87.155 26.741 87.11 C 26.592 90.596 28.36 92.383 30.116 93.294 Z " fill="none" vector-effect="non-scaling-stroke" stroke-width="1" stroke="rgb(255,255,255)" stroke-linejoin="miter" stroke-linecap="butt" stroke-miterlimit="4"/><path d=" M 31.456 96.846 L 31.461 96.847 C 31.466 96.797 31.47 96.747 31.476 96.696 C 31.47 96.748 31.461 96.796 31.456 96.846 Z " fill="none" vector-effect="non-scaling-stroke" stroke-width="1" stroke="rgb(255,255,255)" stroke-linejoin="miter" stroke-linecap="butt" stroke-miterlimit="4"/><path d=" M 25.274 90.464 C 22.624 89.196 19.727 87.459 17.176 85.146 C 12.965 81.313 9.67 76.074 9.539 68.459 C 9.539 68.432 9.537 68.408 9.537 68.316 C 9.543 67.066 9.844 57.8 17.168 51.073 C 17.154 51.042 17.147 51.01 17.139 50.98 C 16.917 50.343 16.726 49.692 16.559 49.036 C 16.516 48.861 16.468 48.69 16.426 48.514 C 16.307 47.988 16.206 47.454 16.121 46.917 C 6.043 54.829 5.679 66.604 5.685 68.316 C 5.685 68.452 5.687 68.529 5.687 68.553 C 5.838 80.253 12.867 87.604 19.561 91.729 C 22.752 93.711 25.891 95.034 28.326 95.882 C 26.894 94.836 25.544 93.147 25.274 90.464 Z " fill="none" vector-effect="non-scaling-stroke" stroke-width="1" stroke="rgb(255,255,255)" stroke-linejoin="miter" stroke-linecap="butt" stroke-miterlimit="4"/><path d=" M 63.278 93.54 C 65.035 92.626 66.802 90.841 66.654 87.356 C 65.525 87.403 64.05 87.547 62.308 87.902 C 62.72 89.777 63.044 91.663 63.278 93.54 Z " fill="none" vector-effect="non-scaling-stroke" stroke-width="1" stroke="rgb(255,255,255)" stroke-linejoin="miter" stroke-linecap="butt" stroke-miterlimit="4"/><path d=" M 38.075 70.711 C 37.625 70.602 37.172 70.483 36.72 70.357 C 33.713 72.922 29.18 77.858 26.774 85.746 C 28.03 85.794 29.662 85.947 31.573 86.325 C 33.42 79.572 36.069 74.188 38.075 70.711 Z " fill="none" vector-effect="non-scaling-stroke" stroke-width="1" stroke="rgb(255,255,255)" stroke-linejoin="miter" stroke-linecap="butt" stroke-miterlimit="4"/><path d=" M 56.653 70.344 C 56.201 70.469 55.756 70.587 55.312 70.696 C 57.32 74.173 59.973 79.568 61.821 86.325 C 63.733 85.949 65.363 85.794 66.619 85.746 C 64.211 77.846 59.669 72.908 56.653 70.344 Z " fill="none" vector-effect="non-scaling-stroke" stroke-width="1" stroke="rgb(255,255,255)" stroke-linejoin="miter" stroke-linecap="butt" stroke-miterlimit="4"/><path d=" M 69.642 34.519 C 70.4 35.653 73.055 38.848 75.378 38.848 C 75.61 38.848 75.839 38.816 76.06 38.751 C 77.175 37.826 85.255 30.587 82.818 16.972 C 78.163 24.069 73.025 26.401 69.481 27.096 C 68.955 27.519 67.021 29.53 69.642 34.519 Z " fill="none" vector-effect="non-scaling-stroke" stroke-width="1" stroke="rgb(255,255,255)" stroke-linejoin="miter" stroke-linecap="butt" stroke-miterlimit="4"/><path d=" M 18.174 38.751 C 18.397 38.814 18.628 38.848 18.859 38.848 C 21.167 38.848 23.804 35.701 24.556 34.584 C 27.215 29.533 25.285 27.52 24.76 27.096 C 21.214 26.401 16.072 24.068 11.421 16.971 C 8.935 30.716 17.056 37.843 18.174 38.751 Z " fill="none" vector-effect="non-scaling-stroke" stroke-width="1" stroke="rgb(255,255,255)" stroke-linejoin="miter" stroke-linecap="butt" stroke-miterlimit="4"/><path d=" M 46.656 69.922 C 44.707 69.922 42.806 69.748 40.956 69.449 C 38.18 73.779 32.821 83.636 31.476 96.698 C 31.605 95.433 31.768 94.195 31.969 92.991 L 31.975 93.085 C 31.767 94.335 31.599 96.03 31.462 97.03 L 31.461 97.03 C 31.082 100.03 31.021 105.03 31.478 108.03 L 35.85 108.03 C 36.408 107.03 38.428 100.03 41.753 98.03 L 45.97 98.03 L 47.024 98.03 L 51.24 98.03 C 54.565 100.03 56.585 107.03 57.142 108.03 L 61.895 108.03 C 63.941 90.03 56.012 74.608 52.418 69 C 50.547 69.304 48.627 69.922 46.656 69.922 Z " fill="none" vector-effect="non-scaling-stroke" stroke-width="1" stroke="rgb(255,255,255)" stroke-linejoin="miter" stroke-linecap="butt" stroke-miterlimit="4"/></g></g></svg>